<?xml version="1.0" ?><!-- Uploaded to: SVG Repo, www.svgrepo.com, Generator: SVG Repo Mixer Tools -->
<svg fill="#000000" width="800px" height="800px" viewBox="0 0 32 32" data-name="Layer 1" id="Layer_1" xmlns="http://www.w3.org/2000/svg"><rect height="1" transform="translate(20 51) rotate(180)" width="16" x="2" y="25"/><rect height="1" transform="translate(26 59) rotate(180)" width="16" x="5" y="29"/><rect height="1" transform="translate(39 -8) rotate(90)" width="19" x="14" y="15"/><rect height="1" transform="translate(21 10) rotate(90)" width="19" x="-4" y="15"/><path d="M24,25H23v2a2,2,0,0,1-2,2H20v1h1a3,3,0,0,0,3-3Z"/><path d="M17,26h1v1a2,2,0,0,0,2,2h1v1H20a3,3,0,0,1-3-3Z"/><path d="M2,26H3v1a2,2,0,0,0,2,2H6v1H5a3,3,0,0,1-3-3Z"/><rect height="1" width="6" x="24" y="6"/><rect height="1" width="19" x="8" y="2"/><path d="M5,6H6V5A2,2,0,0,1,8,3H9V2H8A3,3,0,0,0,5,5Z"/><path d="M23,6h1V5a2,2,0,0,1,2-2h1V2H26a3,3,0,0,0-3,3Z"/><path d="M30,6H29V5a2,2,0,0,0-2-2H26V2h1a3,3,0,0,1,3,3Z"/></svg>